<svg xmlns="http://www.w3.org/2000/svg" viewBox="0 0 1280 720" width="1280" height="720">
  <defs>
    <filter id="shadow" x="-15%" y="-15%" width="140%" height="140%">
      <feGaussianBlur in="SourceAlpha" stdDeviation="10" /><feOffset dx="0" dy="4" result="offsetBlur" />
      <feFlood flood-color="#000000" flood-opacity="0.12" result="shadowColor" />
      <feComposite in="shadowColor" in2="offsetBlur" operator="in" result="shadow" />
      <feMerge><feMergeNode in="shadow" /><feMergeNode in="SourceGraphic" /></feMerge>
    </filter>
  </defs>
  <rect width="1280" height="720" fill="#FFFFFF" />
  <rect x="0" y="0" width="1280" height="6" fill="#0B4DA2" />
  <text x="60" y="55" font-family="Arial, sans-serif" font-size="32" font-weight="bold" fill="#0B4DA2">3.3 Định lý CAP (CAP Theorem)</text>
  <path fill="#D12B1F" d="M61.50,68 H118.50 A1.50,1.50 0 0 1 120,69.50 V69.50 A1.50,1.50 0 0 1 118.50,71 H61.50 A1.50,1.50 0 0 1 60,69.50 V69.50 A1.50,1.50 0 0 1 61.50,68 Z" />
  <text x="60" y="95" font-family="Arial, sans-serif" font-size="16" fill="#718096">Do Eric Brewer đề xuất — Một hệ phân tán chỉ đạt được 2 trong 3 tính chất</text>

  
  
  <circle cx="400" cy="310" r="160" fill="#0B4DA2" fill-opacity="0.12" stroke="#0B4DA2" stroke-width="2.5" stroke-opacity="0.5" />
  <text x="400" y="210" text-anchor="middle" font-family="Arial, sans-serif" font-size="20" font-weight="bold" fill="#0B4DA2">Consistency</text>
  <text x="400" y="233" text-anchor="middle" font-family="Arial, sans-serif" font-size="14" fill="#718096">Tính nhất quán</text>

  
  <circle cx="300" cy="480" r="160" fill="#2E7D32" fill-opacity="0.12" stroke="#2E7D32" stroke-width="2.5" stroke-opacity="0.5" />
  <text x="210" y="560" text-anchor="middle" font-family="Arial, sans-serif" font-size="20" font-weight="bold" fill="#2E7D32">Availability</text>
  <text x="210" y="583" text-anchor="middle" font-family="Arial, sans-serif" font-size="14" fill="#718096">Tính khả dụng</text>

  
  <circle cx="500" cy="480" r="160" fill="#D12B1F" fill-opacity="0.12" stroke="#D12B1F" stroke-width="2.5" stroke-opacity="0.5" />
  <text x="590" y="560" text-anchor="middle" font-family="Arial, sans-serif" font-size="20" font-weight="bold" fill="#D12B1F">Partition</text>
  <text x="590" y="583" text-anchor="middle" font-family="Arial, sans-serif" font-size="14" fill="#718096">Chịu lỗi phân vùng</text>

  
  <text x="340" y="370" text-anchor="middle" font-family="Arial, sans-serif" font-size="15" font-weight="bold" fill="#0B4DA2">CA</text>
  <text x="340" y="388" text-anchor="middle" font-family="Arial, sans-serif" font-size="11" fill="#718096">RDBMS</text>

  <path fill="#D12B1F" fill-opacity="0.15" stroke="#D12B1F" stroke-width="1.5" d="M438,345 H482 A8,8 0 0 1 490,353 V387 A8,8 0 0 1 482,395 H438 A8,8 0 0 1 430,387 V353 A8,8 0 0 1 438,345 Z" />
  <text x="460" y="370" text-anchor="middle" font-family="Arial, sans-serif" font-size="15" font-weight="bold" fill="#D12B1F">CP</text>
  <text x="460" y="388" text-anchor="middle" font-family="Arial, sans-serif" font-size="11" font-weight="bold" fill="#D12B1F">Redis</text>

  <text x="400" y="470" text-anchor="middle" font-family="Arial, sans-serif" font-size="15" font-weight="bold" fill="#2E7D32">AP</text>
  <text x="400" y="488" text-anchor="middle" font-family="Arial, sans-serif" font-size="11" fill="#718096">Cassandra</text>

  
  <g filter="url(#shadow)">
    <path fill="#FFFFFF" d="M712,120 H1208 A12,12 0 0 1 1220,132 V588 A12,12 0 0 1 1208,600 H712 A12,12 0 0 1 700,588 V132 A12,12 0 0 1 712,120 Z" />
  </g>
  
  <path fill="#0B4DA2" d="M712,120 H1208 A12,12 0 0 1 1220,132 V153 A12,12 0 0 1 1208,165 H712 A12,12 0 0 1 700,153 V132 A12,12 0 0 1 712,120 Z" />
  <rect x="700" y="153" width="520" height="12" fill="#0B4DA2" />
  <text x="770" y="150" font-family="Arial, sans-serif" font-size="14" font-weight="bold" fill="#FFFFFF">Loại</text>
  <text x="870" y="150" font-family="Arial, sans-serif" font-size="14" font-weight="bold" fill="#FFFFFF">Tính chất</text>
  <text x="1060" y="150" font-family="Arial, sans-serif" font-size="14" font-weight="bold" fill="#FFFFFF">Ví dụ</text>

  
  <path fill="#0B4DA2" fill-opacity="0.1" d="M726,185 H774 A6,6 0 0 1 780,191 V209 A6,6 0 0 1 774,215 H726 A6,6 0 0 1 720,209 V191 A6,6 0 0 1 726,185 Z" />
  <text x="750" y="205" text-anchor="middle" font-family="Arial, sans-serif" font-size="16" font-weight="bold" fill="#0B4DA2">CA</text>
  <text x="870" y="205" font-family="Arial, sans-serif" font-size="15" fill="#2D3748">Consistency + Availability</text>
  <text x="1060" y="205" font-family="Arial, sans-serif" font-size="14" fill="#718096">MySQL, PostgreSQL</text>

  
  <path fill="#D12B1F" fill-opacity="0.06" stroke="#D12B1F" stroke-width="1.5" stroke-opacity="0.3" d="M718,235 H1202 A8,8 0 0 1 1210,243 V307 A8,8 0 0 1 1202,315 H718 A8,8 0 0 1 710,307 V243 A8,8 0 0 1 718,235 Z" />
  <path fill="#D12B1F" fill-opacity="0.15" d="M726,255 H774 A6,6 0 0 1 780,261 V279 A6,6 0 0 1 774,285 H726 A6,6 0 0 1 720,279 V261 A6,6 0 0 1 726,255 Z" />
  <text x="750" y="275" text-anchor="middle" font-family="Arial, sans-serif" font-size="16" font-weight="bold" fill="#D12B1F">CP</text>
  <text x="870" y="268" font-family="Arial, sans-serif" font-size="15" fill="#2D3748">Consistency + Partition Tol.</text>
  <text x="1060" y="268" font-family="Arial, sans-serif" font-size="14" font-weight="bold" fill="#D12B1F">Redis, HBase,</text>
  <text x="1060" y="290" font-family="Arial, sans-serif" font-size="14" font-weight="bold" fill="#D12B1F">MongoDB, BigTable</text>

  
  <path fill="#2E7D32" fill-opacity="0.1" d="M726,340 H774 A6,6 0 0 1 780,346 V364 A6,6 0 0 1 774,370 H726 A6,6 0 0 1 720,364 V346 A6,6 0 0 1 726,340 Z" />
  <text x="750" y="360" text-anchor="middle" font-family="Arial, sans-serif" font-size="16" font-weight="bold" fill="#2E7D32">AP</text>
  <text x="870" y="360" font-family="Arial, sans-serif" font-size="15" fill="#2D3748">Availability + Partition Tol.</text>
  <text x="1060" y="360" font-family="Arial, sans-serif" font-size="14" fill="#718096">Cassandra, DynamoDB</text>

  
  <path fill="#E5F4F9" d="M730,410 H1190 A10,10 0 0 1 1200,420 V470 A10,10 0 0 1 1190,480 H730 A10,10 0 0 1 720,470 V420 A10,10 0 0 1 730,410 Z" />
  
  <g transform="translate(740.0, 425.0) scale(2.25)" fill="#D12B1F">
    <path d="M13.1371 6.91018C13.4184 6.7695 13.7123 6.59981 14 6.40001V8C14 9.65685 11.3137 11 8 11C4.68629 11 2 9.65685 2 8V6.40001C2.28772 6.59981 2.58158 6.7695 2.86293 6.91018C4.28096 7.61919 6.09998 8 8 8C9.90002 8 11.719 7.61919 13.1371 6.91018Z" />
    <path d="M2 11.4V13C2 14.6569 4.68629 16 8 16C11.3137 16 14 14.6569 14 13V11.4C13.7123 11.5998 13.4184 11.7695 13.1371 11.9102C11.719 12.6192 9.90002 13 8 13C6.09998 13 4.28096 12.6192 2.86293 11.9102C2.58158 11.7695 2.28772 11.5998 2 11.4Z" />
    <path d="M8 0C11.3137 0 14 1.34315 14 3C14 4.65685 11.3137 6 8 6C4.68629 6 2 4.65685 2 3C2 1.34315 4.68629 0 8 0Z" />
  </g>
  <text x="790" y="440" font-family="Arial, sans-serif" font-size="16" font-weight="bold" fill="#D12B1F">Redis thuộc nhóm CP</text>
  <text x="790" y="462" font-family="Arial, sans-serif" font-size="14" fill="#718096">Ưu tiên nhất quán, chấp nhận giảm khả dụng khi network partition</text>

  
  <path fill="#F5F7FA" d="M730,500 H1190 A10,10 0 0 1 1200,510 V570 A10,10 0 0 1 1190,580 H730 A10,10 0 0 1 720,570 V510 A10,10 0 0 1 730,500 Z" />
  <text x="740" y="530" font-family="Arial, sans-serif" font-size="15" font-weight="bold" fill="#0B4DA2">Quy tắc quan trọng:</text>
  <text x="740" y="558" font-family="Arial, sans-serif" font-size="14" fill="#2D3748">Không có hệ phân tán nào đạt cả 3 tính chất cùng lúc.</text>
  <text x="740" y="575" font-family="Arial, sans-serif" font-size="14" fill="#2D3748">Phải chọn hy sinh 1 trong 3: C, A, hoặc P.</text>

  <text x="1220" y="700" text-anchor="end" font-family="Arial, sans-serif" font-size="12" fill="#A0AEC0">05 / 25</text>
</svg>